<svg width="236" height="236" viewBox="0 0 236 236" fill="none" xmlns="http://www.w3.org/2000/svg">
<circle cx="118" cy="118" r="118" fill="url(#paint0_linear)"/>
<path d="M171.677 196.443C173.177 196.443 174.143 194.853 173.453 193.522L92.7186 37.905C91.9669 36.4561 89.9052 36.4699 89.2145 37.9488C81.329 54.8327 70.9534 84.1636 72.3579 80.2626C72.9074 78.7362 79.1208 76.0512 82.5441 81.3126L141.736 195.364C142.08 196.027 142.765 196.443 143.511 196.443L171.677 196.443Z" fill="#E5E5E5"/>
<circle cx="61.5376" cy="178.269" r="22.2043" fill="#E5E5E5"/>
<path d="M108.246 34.8925H186.419C187.524 34.8925 188.419 35.7879 188.419 36.8925V55.0968C188.419 56.2013 187.524 57.0968 186.419 57.0968H117.443C116.689 57.0968 115.998 56.6721 115.658 55.9986L106.461 37.7943C105.789 36.4641 106.755 34.8925 108.246 34.8925Z" fill="#E5E5E5"/>
<path d="M124.466 67.2473H178.172C179.277 67.2473 180.172 68.1427 180.172 69.2473V87.4516C180.172 88.5562 179.277 89.4516 178.172 89.4516H133.929C133.183 89.4516 132.498 89.0362 132.154 88.3741L122.691 70.1698C121.999 68.8384 122.965 67.2473 124.466 67.2473Z" fill="#E5E5E5"/>
<defs>
<linearGradient id="paint0_linear" x1="25.5" y1="33.5" x2="225.5" y2="195.5" gradientUnits="userSpaceOnUse">
<stop stop-color="#191654"/>
<stop stop-color="#1C225A"/>
<stop offset="1" stop-color="#43C6AC"/>
</linearGradient>
</defs>
</svg>
