<svg width="350" height="350" viewBox="0 0 350 350" fill="none" xmlns="http://www.w3.org/2000/svg">
<rect width="350" height="350" rx="175" fill="#282828"/>
<path d="M100.525 129.868L117.424 84L185.363 233.674C194.33 254.021 205.366 261.263 217.436 266.091H133.288C149.842 255.883 148.462 238.387 145.703 230.915L100.525 129.868Z" fill="#E2E2E2"/>
<path d="M79.1434 187.461H126.391L131.564 198.497H70.1768L79.1434 187.461Z" fill="#E2E2E2"/>
<path d="M63.2794 224.017C62.1758 236.709 43.9666 257.585 35 266.436H93.2831C70.1078 262.022 63.6242 236.318 63.2794 224.017Z" fill="#E2E2E2"/>
<path d="M248.475 220.569L231.576 266.436L163.637 116.763C154.67 96.4154 143.634 89.1731 131.564 84.3449H215.712C199.158 94.5531 200.538 112.049 203.297 119.522L248.475 220.569Z" fill="#E2E2E2"/>
<path d="M269.857 162.975H222.609L217.436 151.939H278.823L269.857 162.975Z" fill="#E2E2E2"/>
<path d="M285.721 126.419C286.824 113.728 305.033 92.8517 314 84H255.717C278.892 88.4144 285.376 114.119 285.721 126.419Z" fill="#E2E2E2"/>
</svg>
