<svg width="300" height="300" viewBox="0 0 300 300" fill="none" xmlns="http://www.w3.org/2000/svg">
<rect width="300" height="300" rx="30" fill="white"/>
<path d="M76.5254 104.868L93.424 59L161.363 208.674C170.33 229.021 181.366 236.263 193.436 241.091H109.288C125.842 230.883 124.462 213.387 121.703 205.915L76.5254 104.868Z" fill="#282828"/>
<path d="M55.1434 162.461H102.391L107.564 173.497H46.1768L55.1434 162.461Z" fill="#282828"/>
<path d="M39.2794 199.017C38.1758 211.709 19.9666 232.585 11 241.436H69.2831C46.1078 237.022 39.6242 211.318 39.2794 199.017Z" fill="#282828"/>
<path d="M224.475 195.569L207.576 241.436L139.637 91.7627C130.67 71.4153 119.634 64.1731 107.564 59.3449H191.712C175.158 69.553 176.538 87.0495 179.297 94.5217L224.475 195.569Z" fill="#282828"/>
<path d="M245.857 137.975H198.609L193.436 126.939H254.823L245.857 137.975Z" fill="#282828"/>
<path d="M261.721 101.419C262.824 88.7278 281.033 67.8517 290 59H231.717C254.892 63.4144 261.376 89.1187 261.721 101.419Z" fill="#282828"/>
</svg>
